<svg width="72" height="72" viewBox="0 0 72 72" fill="none" xmlns="http://www.w3.org/2000/svg">
<path d="M43.0856 47.0786L44.8861 48.8708L46.9982 50.9616L47.8061 51.7773L52.0189 47.5841L47.3099 42.8855L43.0856 47.0786Z" fill="#5D6D7E"/>
<path d="M56.1274 47.5955L70.2776 61.68C72.5744 63.9661 72.5744 67.6653 70.2776 69.9514C67.9808 72.2376 64.2644 72.2376 61.9675 69.9514L47.8173 55.867L56.1274 47.5955Z" fill="#FFF8F0"/>
<path d="M54.1311 49.2843L55.2853 48.1125L69.5509 62.5072C71.4091 64.4027 71.4091 67.4241 69.5509 69.3196C69.4009 69.4689 69.1931 69.5609 68.9738 69.5609C68.7545 69.5609 68.5468 69.4689 68.3967 69.3196C68.0736 68.9979 68.0736 68.481 68.3967 68.1478C69.6202 66.9071 69.6202 64.9082 68.3967 63.6674L54.1311 49.2843Z" fill="#DDDDDD"/>
<path d="M47.6562 55.7522L56.024 47.4233L55.4007 46.8029C54.5928 45.9988 53.2771 45.9988 52.4691 46.8029L47.033 52.2139C46.225 53.018 46.225 54.3162 47.033 55.1203L47.6562 55.7522Z" fill="#34495E"/>
<path d="M0 26.6065C0 11.9132 11.9804 0 26.7423 0C41.5042 0 53.4846 11.9247 53.4846 26.618C53.4846 41.3113 41.5158 53.2359 26.7423 53.2359C11.9688 53.2359 0 41.3113 0 26.6065C0 26.618 0 26.6065 0 26.6065Z" fill="#34495E"/>
<path d="M26.7998 50.2147C39.8651 50.2147 50.4489 39.6801 50.4489 26.6756C50.4489 13.671 39.8651 3.13643 26.7998 3.13643C13.7461 3.13643 3.15073 13.671 3.15073 26.6756C3.15073 39.6687 13.7345 50.2147 26.7998 50.2147Z" fill="#5D6D7E"/>
<path d="M26.8001 48.641C38.9882 48.641 48.868 38.8072 48.868 26.6758C48.868 14.5443 38.9882 4.69898 26.8001 4.69898C14.612 4.69898 4.73225 14.5443 4.73225 26.6758C4.73225 38.8072 14.612 48.641 26.8001 48.641Z" fill="#CEE2F2"/>
<path d="M41.5157 14.2225C37.6261 15.716 34.0712 17.9332 31.0242 20.7593C30.2163 20.4606 29.3507 20.2998 28.485 20.2998H25.8189C24.9532 20.2998 24.0876 20.4606 23.2797 20.7593C20.2326 17.9332 16.6778 15.716 12.7882 14.2225C11.9226 13.9009 10.9531 14.3374 10.6299 15.199C10.5145 15.4862 10.4914 15.7964 10.5491 16.0951C11.2878 19.8517 12.6959 23.459 14.7041 26.7216C15.5467 28.1117 16.8163 29.1916 18.3167 29.8119L17.1279 40.5648C17.1279 43.6781 21.6177 46.194 27.1577 46.194C32.6978 46.194 37.1875 43.6781 37.1875 40.5648L35.9987 29.8119C37.4992 29.1916 38.7687 28.1117 39.6113 26.7216C41.6196 23.459 43.0277 19.8517 43.7663 16.0951C43.9395 15.1875 43.3277 14.3144 42.4159 14.1421C42.1159 14.0847 41.8042 14.1191 41.5272 14.2225H41.5157Z" fill="#DEC4A7"/>
<path d="M37.1759 40.5647L36.3449 33.0745L32.8362 32.3852C30.6779 31.9601 28.912 30.4437 28.1618 28.3873L27.1461 25.5727L26.1305 28.3873C25.3802 30.4437 23.6144 31.9601 21.456 32.3852L17.9473 33.0745L17.1163 40.5647C17.1163 43.678 21.6061 46.1939 27.1461 46.1939C32.6862 46.1939 37.1759 43.6665 37.1759 40.5647Z" fill="#F3E8D4"/>
<path d="M31.5897 33.5915C31.2896 33.5915 31.0472 33.8328 31.0472 34.1315C31.0472 35.0505 30.297 35.8088 29.3737 35.8088C28.5773 35.8088 27.8963 35.2573 27.7232 34.4761C27.7925 34.4302 27.8386 34.3727 27.8963 34.3153L29.1659 32.6955C29.4891 32.2819 29.4083 31.696 29.0043 31.3743C28.8428 31.248 28.635 31.179 28.4273 31.179H25.8881C25.3687 31.179 24.9416 31.6041 24.9416 32.1211C24.9416 32.3278 25.0109 32.5346 25.1378 32.6955L26.4074 34.3153C26.4536 34.3727 26.5113 34.4302 26.569 34.4761C26.3844 35.3837 25.4956 35.9581 24.5838 35.7743C23.799 35.6135 23.245 34.9242 23.245 34.1315C23.245 33.8328 23.0026 33.5915 22.7025 33.5915C22.4024 33.5915 22.1601 33.8328 22.1601 34.1315C22.1601 35.6479 23.395 36.8771 24.9185 36.8886C25.7957 36.8886 26.6267 36.4751 27.1461 35.7628C28.0464 36.992 29.7776 37.2563 31.0011 36.3487C31.7167 35.8317 32.1322 35.0046 32.1322 34.1315C32.1322 33.8213 31.8898 33.5801 31.5897 33.5915Z" fill="#2B1716"/>
<path d="M31.4282 27.0434C30.7357 27.0434 30.1702 27.6063 30.1702 28.2956V29.1802C30.1933 29.8694 30.7704 30.4209 31.4744 30.3979C32.1438 30.3749 32.6748 29.8465 32.6978 29.1802V28.2956C32.6863 27.5948 32.1208 27.0434 31.4282 27.0434Z" fill="#2B1716"/>
<path d="M22.8644 27.0434C22.1719 27.0434 21.5948 27.5948 21.5948 28.2956V29.1802C21.6179 29.8694 22.1949 30.4209 22.899 30.3979C23.5684 30.3749 24.0993 29.8465 24.1224 29.1802V28.2956C24.1109 27.6063 23.5569 27.0434 22.8644 27.0434Z" fill="#2B1716"/>
<path d="M14 13.7632C13.8962 13.6023 13.7577 13.4645 13.6192 13.3496C12.7997 12.6833 11.5763 12.7981 10.9069 13.6253L10.8953 13.6368C6.48635 19.0362 5.38988 26.4231 8.03295 32.8679C8.47154 33.8444 9.61417 34.2809 10.5952 33.8444C11.5301 33.4308 11.9802 32.3624 11.6224 31.4089C9.52184 26.2507 10.399 20.3803 13.9077 16.0493C14.4386 15.3945 14.4733 14.4639 14 13.7632Z" fill="white"/>
<path d="M26.4189 7.43311C26.0381 6.87019 25.3802 6.53704 24.6992 6.5715C21.6984 6.74383 18.7898 7.61692 16.1929 9.11038C15.2696 9.63883 14.958 10.8221 15.4889 11.7412C16.0198 12.6602 17.2086 12.9704 18.132 12.4419C20.2095 11.2472 22.5294 10.5579 24.9185 10.42C25.9804 10.3626 26.7883 9.46651 26.7306 8.4096V8.39811C26.7306 8.05347 26.6152 7.72032 26.4189 7.43311Z" fill="white"/>
</svg>
