<svg width="43" height="47" viewBox="0 0 43 47" fill="none" xmlns="http://www.w3.org/2000/svg">
<path d="M25.7314 30.8752L26.8067 32.0505L28.0682 33.4217L28.5507 33.9566L31.0666 31.2067L28.2543 28.1252L25.7314 30.8752Z" fill="#5D6D7E"/>
<path d="M33.5206 31.2141L41.9713 40.4509C43.343 41.9502 43.343 44.3762 41.9713 45.8755C40.5996 47.3748 38.3801 47.3748 37.0084 45.8755L28.5576 36.6387L33.5206 31.2141Z" fill="#FF9F00"/>
<path d="M32.3281 32.3217L33.0174 31.5532L41.5371 40.9935C42.6469 42.2366 42.6469 44.2181 41.5371 45.4612C41.4475 45.5591 41.3234 45.6194 41.1925 45.6194C41.0615 45.6194 40.9374 45.5591 40.8478 45.4612C40.6548 45.2502 40.6548 44.9112 40.8478 44.6927C41.5785 43.879 41.5785 42.5681 40.8478 41.7544L32.3281 32.3217Z" fill="#DDDDDD"/>
<path d="M28.4612 36.5634L33.4585 31.1012L33.0863 30.6944C32.6038 30.167 31.818 30.167 31.3355 30.6944L28.0889 34.2429C27.6064 34.7703 27.6064 35.6217 28.0889 36.1491L28.4612 36.5634Z" fill="#34495E"/>
<path d="M0 17.449C0 7.81287 7.1549 0 15.971 0C24.7871 0 31.942 7.82041 31.942 17.4565C31.942 27.0927 24.794 34.9131 15.971 34.9131C7.148 34.9131 0 27.0927 0 17.449C0 17.4565 0 17.449 0 17.449Z" fill="#34495E"/>
<path d="M16.0055 32.9319C23.8083 32.9319 30.1292 26.0231 30.1292 17.4945C30.1292 8.96591 23.8083 2.05713 16.0055 2.05713C8.20957 2.05713 1.88184 8.96591 1.88184 17.4945C1.88184 26.0156 8.20268 32.9319 16.0055 32.9319Z" fill="#5D6D7E"/>
<path d="M16.0055 31.8998C23.2845 31.8998 29.1849 25.4506 29.1849 17.4945C29.1849 9.53852 23.2845 3.08179 16.0055 3.08179C8.72655 3.08179 2.82617 9.53852 2.82617 17.4945C2.82617 25.4506 8.72655 31.8998 16.0055 31.8998Z" fill="#CEE2F2"/>
<path d="M24.7942 9.32748C22.4713 10.3069 20.3482 11.761 18.5285 13.6144C18.046 13.4185 17.529 13.313 17.0121 13.313H15.4198C14.9028 13.313 14.3858 13.4185 13.9033 13.6144C12.0836 11.761 9.96055 10.3069 7.63762 9.32748C7.12065 9.11652 6.54164 9.40282 6.34864 9.96788C6.27971 10.1562 6.26592 10.3597 6.30039 10.5555C6.74154 13.0192 7.58248 15.3849 8.78185 17.5246C9.28504 18.4362 10.0433 19.1444 10.9394 19.5513L10.2294 26.6032C10.2294 28.6449 12.9107 30.2949 16.2194 30.2949C19.528 30.2949 22.2093 28.6449 22.2093 26.6032L21.4994 19.5513C22.3955 19.1444 23.1537 18.4362 23.6569 17.5246C24.8562 15.3849 25.6972 13.0192 26.1383 10.5555C26.2417 9.96034 25.8764 9.38775 25.3319 9.27474C25.1526 9.23707 24.9665 9.25967 24.8011 9.32748H24.7942Z" fill="#FF9F00"/>
<path d="M22.2021 26.6033L21.7058 21.691L19.6104 21.239C18.3214 20.9602 17.2668 19.9657 16.8187 18.6171L16.2122 16.7712L15.6056 18.6171C15.1575 19.9657 14.1029 20.9602 12.8139 21.239L10.7185 21.691L10.2222 26.6033C10.2222 28.645 12.9035 30.295 16.2122 30.295C19.5208 30.295 22.2021 28.6375 22.2021 26.6033Z" fill="#F3E8D4"/>
<path d="M18.8659 22.0302C18.6867 22.0302 18.542 22.1884 18.542 22.3843C18.542 22.987 18.0939 23.4842 17.5425 23.4842C17.0669 23.4842 16.6602 23.1226 16.5568 22.6103C16.5981 22.5802 16.6257 22.5425 16.6602 22.5048L17.4184 21.4425C17.6114 21.1713 17.5632 20.787 17.3219 20.5761C17.2254 20.4932 17.1013 20.448 16.9773 20.448H15.4608C15.1506 20.448 14.8956 20.7268 14.8956 21.0658C14.8956 21.2014 14.9369 21.337 15.0128 21.4425L15.771 22.5048C15.7986 22.5425 15.833 22.5802 15.8675 22.6103C15.7572 23.2055 15.2264 23.5822 14.6819 23.4616C14.2132 23.3562 13.8823 22.9041 13.8823 22.3843C13.8823 22.1884 13.7376 22.0302 13.5583 22.0302C13.3791 22.0302 13.2344 22.1884 13.2344 22.3843C13.2344 23.3788 13.9719 24.1849 14.8818 24.1925C15.4057 24.1925 15.902 23.9212 16.2121 23.4541C16.7498 24.2603 17.7837 24.4335 18.5144 23.8383C18.9418 23.4993 19.1899 22.9569 19.1899 22.3843C19.1899 22.1808 19.0451 22.0226 18.8659 22.0302Z" fill="#2B1716"/>
<path d="M18.7694 17.7356C18.3558 17.7356 18.0181 18.1048 18.0181 18.5568V19.1369C18.0319 19.589 18.3765 19.9506 18.797 19.9356C19.1968 19.9205 19.5138 19.5739 19.5276 19.1369V18.5568C19.5207 18.0972 19.183 17.7356 18.7694 17.7356Z" fill="#2B1716"/>
<path d="M13.6547 17.7356C13.2411 17.7356 12.8965 18.0972 12.8965 18.5568V19.1369C12.9103 19.589 13.2549 19.9506 13.6754 19.9356C14.0752 19.9205 14.3923 19.5739 14.406 19.1369V18.5568C14.3992 18.1048 14.0683 17.7356 13.6547 17.7356Z" fill="#2B1716"/>
<path d="M8.36124 9.0263C8.2992 8.92082 8.21649 8.83041 8.13377 8.75507C7.64437 8.31809 6.91371 8.39343 6.51392 8.93589L6.50703 8.94342C3.87392 12.4845 3.21909 17.3289 4.79758 21.5555C5.05951 22.1959 5.74191 22.4822 6.32781 22.1959C6.88614 21.9247 7.15497 21.224 6.94129 20.5987C5.68677 17.2159 6.21063 13.3659 8.30609 10.5256C8.62317 10.0961 8.64385 9.48588 8.36124 9.0263Z" fill="white"/>
<path d="M15.7778 4.87501C15.5503 4.50584 15.1574 4.28735 14.7508 4.30995C12.9586 4.42296 11.2216 4.99555 9.67064 5.97499C9.11921 6.32156 8.9331 7.09757 9.25017 7.7003C9.56725 8.30303 10.2772 8.50645 10.8287 8.15988C12.0694 7.37633 13.4549 6.92428 14.8817 6.83388C15.5159 6.7962 15.9984 6.20854 15.9639 5.51541V5.50787C15.9639 5.28185 15.895 5.06336 15.7778 4.87501Z" fill="white"/>
</svg>
